HIERARCHY
ROOT root
{
	OFFSET 0.000000 0.000000 0.000000
	CHANNELS 6 Xposition Yposition Zposition Zrotation Yrotation Xrotation
	JOINT lhip
	{
		OFFSET 0.058581 -0.082280 -0.017664
		CHANNELS 3 Zrotation Yrotation Xrotation
		JOINT lknee
		{
			OFFSET 0.043451 -0.386469 0.008037
			CHANNELS 3 Zrotation Yrotation Xrotation
			JOINT lankle
			{
				OFFSET -0.014790 -0.426874 -0.037428
				CHANNELS 3 Zrotation Yrotation Xrotation
				JOINT ltoe
				{
					OFFSET 0.041054 -0.060286 0.122042
					CHANNELS 3 Zrotation Yrotation Xrotation
					End Site
					{
						OFFSET 0.000000 0.000000 0.000000
					}
				}
			}
		}
	}
	JOINT rhip
	{
		OFFSET -0.060310 -0.090513 -0.013543
		CHANNELS 3 Zrotation Yrotation Xrotation
		JOINT rknee
		{
			OFFSET -0.043257 -0.383688 -0.004843
			CHANNELS 3 Zrotation Yrotation Xrotation
			JOINT rankle
			{
				OFFSET 0.019056 -0.420046 -0.034562
				CHANNELS 3 Zrotation Yrotation Xrotation
				JOINT rtoe
				{
					OFFSET -0.034840 -0.062106 0.130323
					CHANNELS 3 Zrotation Yrotation Xrotation
					End Site
					{
						OFFSET 0.000000 0.000000 0.000000
					}
				}
			}
		}
	}
	JOINT lowerback
	{
		OFFSET 0.004439 0.124404 -0.038385
		CHANNELS 3 Zrotation Yrotation Xrotation
		JOINT upperback
		{
			OFFSET 0.004488 0.137956 0.026820
			CHANNELS 3 Zrotation Yrotation Xrotation
			JOINT chest
			{
				OFFSET -0.002265 0.056032 0.002855
				CHANNELS 3 Zrotation Yrotation Xrotation
				JOINT lowerneck
				{
					OFFSET -0.013390 0.211636 -0.033468
					CHANNELS 3 Zrotation Yrotation Xrotation
					JOINT upperneck
					{
						OFFSET 0.010113 0.088937 0.050410
						CHANNELS 3 Zrotation Yrotation Xrotation
						End Site
						{
							OFFSET 0.000000 0.000000 0.000000
						}
					}
				}
				JOINT lclavicle
				{
					OFFSET 0.071702 0.114000 -0.018898
					CHANNELS 3 Zrotation Yrotation Xrotation
					JOINT lshoulder
					{
						OFFSET 0.122921 0.045205 -0.019046
						CHANNELS 3 Zrotation Yrotation Xrotation
						JOINT lelbow
						{
							OFFSET 0.255332 -0.015649 -0.022946
							CHANNELS 3 Zrotation Yrotation Xrotation
							JOINT lwrist
							{
								OFFSET 0.265709 0.012698 -0.007375
								CHANNELS 3 Zrotation Yrotation Xrotation
								End Site
								{
									OFFSET 0.000000 0.000000 0.000000
								}
							}
						}
					}
				}
				JOINT rclavicle
				{
					OFFSET -0.082954 0.112472 -0.023707
					CHANNELS 3 Zrotation Yrotation Xrotation
					JOINT rshoulder
					{
						OFFSET -0.113228 0.046853 -0.008472
						CHANNELS 3 Zrotation Yrotation Xrotation
						JOINT relbow
						{
							OFFSET -0.260127 -0.014369 -0.031269
							CHANNELS 3 Zrotation Yrotation Xrotation
							JOINT rwrist
							{
								OFFSET -0.269108 0.006794 -0.006027
								CHANNELS 3 Zrotation Yrotation Xrotation
								End Site
								{
									OFFSET 0.000000 0.000000 0.000000
								}
							}
						}
					}
				}
			}
		}
	}
}
MOTION
Frames: 10
Frame Time: 0.033333
0.041236 0.234010 1.003891 90.918272 0.901358 95.268156 6.237792 1.575553 -6.516344 -3.228603 -2.526408 5.241567 -1.825021 3.640469 -7.576746 0.000000 -0.000000 0.000000 -4.009623 -4.404800 -6.722504 -1.272069 -2.850559 5.733190 6.411068 -2.372338 -6.379004 0.000000 -0.000000 0.000000 0.466481 -1.590314 7.457580 -3.645546 -1.548193 -3.194493 0.019833 -0.339293 -5.742429 -6.311579 -1.509237 4.721537 8.855506 9.745853 4.123743 -21.298668 -4.744418 -0.320687 -41.569996 -26.799524 9.918907 160.317406 -50.276517 -132.284334 17.931826 -11.542657 -20.564958 19.749304 7.545519 5.785247 60.579488 1.358543 15.458189 -7.339234 36.872942 5.395216 1.343275 3.626387 4.113583 
0.039578 0.234161 1.004026 90.129991 1.075018 95.490935 6.414232 1.815084 -7.617595 -3.262692 -2.878652 6.939012 -2.221842 4.270955 -8.059459 0.000000 -0.000000 0.000000 -3.692335 -4.125043 -7.252476 -1.330544 -2.130875 5.618336 6.606159 -2.891498 -6.194324 0.000000 -0.000000 0.000000 0.145673 -1.751108 7.496040 -2.804050 -3.479644 -4.051976 0.490759 -1.290440 -5.940495 -6.790022 2.604728 3.797097 9.472424 11.587835 5.602611 -19.157248 -10.924799 -1.734568 -33.377378 -33.656869 2.506335 142.040408 -54.828374 -117.686063 17.331765 -10.959618 -14.322436 19.624325 9.323309 5.547126 60.093347 1.265588 16.173809 -6.620189 36.505309 7.311151 0.623054 4.145462 3.013279 
0.038028 0.234882 1.004648 88.416328 1.520035 95.649583 6.801116 2.425016 -8.522784 -3.303500 -3.006826 8.781547 -2.599198 5.099451 -8.627656 0.000000 -0.000000 0.000000 -3.272136 -3.676459 -7.481441 -1.081712 -1.198063 4.710917 6.755912 -3.200741 -5.475460 0.000000 -0.000000 0.000000 -0.207472 -1.435499 7.792565 -1.552685 -5.223152 -4.959149 1.196697 -1.999237 -6.203621 -7.278333 7.900346 3.396212 9.364998 13.694487 6.470928 -15.678969 -16.592381 -3.204997 -25.209500 -36.873071 -5.995812 112.179001 -59.806875 -90.485398 12.393108 -10.159108 -5.991630 18.743245 10.604938 5.332490 60.185062 0.954059 16.186936 -6.671357 36.782485 10.134783 2.640584 4.086531 0.776349 
0.036025 0.235647 1.005707 85.529784 1.946186 95.820140 7.031304 2.785439 -9.287993 -3.221955 -2.623803 10.722244 -2.799330 6.864525 -9.219941 0.000000 -0.000000 0.000000 -3.038977 -2.989278 -7.949536 -0.722117 0.234630 3.852588 6.913448 -3.095074 -4.542900 0.000000 -0.000000 0.000000 -0.955341 -0.466699 7.513744 0.002354 -6.558827 -5.143074 1.878716 -2.003170 -6.115260 -8.151798 13.730639 3.720158 8.657999 14.460873 5.589230 -10.319555 -21.391727 -4.513323 -18.765560 -37.630056 -12.518667 75.584247 -55.447358 -58.218670 8.597320 -7.199088 -2.504429 17.871672 11.294519 5.196905 60.410037 0.573779 16.198195 -8.237258 37.691392 11.461299 3.503129 3.473858 -2.849200 
0.033406 0.236872 1.005990 82.437219 2.189340 95.512564 6.888379 2.592306 -9.776301 -2.985422 -2.244730 13.103284 -2.669595 9.485623 -9.898892 0.000000 -0.000000 0.000000 -3.019836 -2.472455 -8.125167 -0.322744 1.928702 3.254912 7.247045 -3.027079 -3.880168 0.000000 -0.000000 0.000000 -1.291206 0.403940 7.951420 1.015355 -7.629596 -5.308367 1.936671 -1.956894 -5.579463 -8.770488 19.343688 3.758177 7.459995 14.881601 3.756770 -4.563370 -24.412749 -6.637634 -13.212111 -37.036675 -16.438115 50.418155 -43.593072 -39.288755 7.229812 -4.121128 -3.139142 17.233814 11.622198 4.755029 60.874592 0.835340 17.267882 -10.288221 37.676583 9.906564 2.208343 2.864395 -6.532725 
0.030569 0.238733 1.005307 79.488370 2.542220 94.952313 6.847476 2.919437 -10.276824 -2.651564 -1.709692 15.973580 -2.735509 11.596353 -10.593571 0.000000 -0.000000 0.000000 -2.936375 -2.085379 -8.122194 0.106457 3.731311 2.940608 7.441694 -2.585442 -3.322338 0.000000 -0.000000 0.000000 -1.446807 1.126183 8.336188 1.755097 -8.365179 -3.871506 1.796182 -1.609799 -5.453622 -9.515427 24.065396 2.497397 5.888105 14.703092 2.002150 0.363046 -25.308165 -9.469061 -9.284316 -36.032370 -18.470935 36.021215 -32.620742 -26.832104 4.192904 -1.993009 -1.080447 16.581405 11.297771 4.005809 61.353798 1.337176 17.860805 -12.060295 37.495574 8.599382 2.395765 2.190233 -10.280663 
0.026907 0.240505 1.004738 76.783797 3.060167 94.549331 7.349887 2.794688 -10.615879 -2.483049 -0.204839 18.143124 -2.980380 13.211481 -11.276322 0.000000 -0.000000 0.000000 -2.612920 -1.126610 -8.388774 0.402232 4.970363 2.921343 7.828933 -2.134955 -2.747066 0.000000 -0.000000 0.000000 -1.665619 1.775219 9.139582 2.310999 -8.438244 -3.234498 1.907906 -1.520109 -5.085276 -10.314784 27.070727 1.397371 4.535600 14.601887 0.401442 3.548887 -25.417396 -11.025858 -7.030080 -35.600371 -20.063900 29.085385 -23.580962 -22.470009 0.647401 -2.264803 -0.738031 15.875521 10.789628 3.564758 61.472204 1.788158 18.439793 -12.957443 36.864567 7.409602 2.350928 2.557717 -12.164387 
0.023433 0.242055 1.004426 75.289692 3.543881 94.397554 7.888520 3.091653 -11.203147 -2.498425 0.522077 19.869369 -3.242281 14.095866 -11.782963 0.000000 -0.000000 0.000000 -2.324381 -0.250753 -8.390942 0.779849 5.795505 2.439737 7.920941 -2.424036 -2.299727 0.000000 -0.000000 0.000000 -1.669546 1.691588 10.210585 2.228933 -8.745653 -3.083444 1.965727 -1.554564 -4.918552 -10.911956 28.250882 0.271272 4.241420 15.976232 -1.070358 3.227504 -26.065855 -11.882193 -3.542153 -34.789420 -22.479196 25.414605 -18.483734 -22.754810 -1.055887 -2.676436 1.271038 16.173758 10.909848 3.507122 60.508800 1.271839 18.746984 -12.963704 36.497801 6.672085 2.786909 2.319108 -11.987581 
0.019366 0.242887 1.004167 74.689753 4.063498 94.523234 8.543385 3.768951 -12.293791 -2.518827 0.883880 21.594199 -3.632202 14.217782 -12.301786 0.000000 -0.000000 0.000000 -1.759255 -0.266449 -8.779732 0.910145 6.360987 2.347170 8.222137 -2.255408 -1.981346 0.000000 -0.000000 0.000000 -1.761340 1.733497 11.121971 1.993150 -9.253679 -2.546744 1.911543 -1.799317 -5.084397 -11.112664 28.882743 -1.572681 4.730421 16.443667 -1.928598 2.360485 -27.283468 -12.597915 0.107704 -33.732004 -24.746487 23.233945 -15.938163 -20.529828 -3.522479 -3.231675 5.975148 16.617086 11.135920 3.542388 59.617795 0.398191 18.096707 -12.103687 35.988253 7.757062 3.426064 2.628492 -12.102694 
0.015514 0.244062 1.003681 74.942902 4.394160 94.774184 8.992323 3.801232 -13.433036 -2.691275 0.809457 22.773639 -3.798196 14.583552 -12.501441 0.000000 -0.000000 0.000000 -1.540970 -0.183909 -8.876762 1.165303 6.562513 1.733611 8.122752 -2.840795 -1.537798 0.000000 -0.000000 0.000000 -2.049815 1.814128 11.977705 1.812717 -9.735492 -2.011633 1.851513 -2.179221 -4.975996 -11.251491 28.970184 -3.660442 5.184835 16.482804 -2.797865 2.568990 -27.729528 -12.957099 2.211519 -33.152104 -25.735589 21.880699 -14.763976 -20.463757 -4.528568 -3.652917 6.478282 16.255225 10.928145 2.975946 59.317426 -0.484577 18.166691 -11.131410 34.910279 8.550158 4.380878 2.330890 -13.111815 
